<?xml version="1.0" encoding="UTF-8" standalone="no"?>
<!DOCTYPE svg PUBLIC "-//W3C//DTD SVG 20010904//EN" "http://www.w3.org/TR/2001/REC-SVG-20010904/DTD/svg10.dtd">
<svg version="1.0" xmlns="http://www.w3.org/2000/svg" width="1024.000000pt" height="1024.000000pt" viewBox="0 0 1024.000000 1024.000000" preserveAspectRatio="xMidYMid meet">
<metadata>
Created by potrace 1.11, written by Peter Selinger 2001-2013
</metadata>
<g transform="translate(0.000000,1024.000000) scale(0.100000,-0.100000)" fill="#000000" stroke="none">
<path d="M4750 9649 c-442 -38 -893 -143 -1310 -306 -269 -105 -669 -321 -914 -495 -383 -271 -748 -624 -1029 -995 -290 -384 -525 -828 -677 -1282 -112 -335 -192 -732 -220 -1095 -13 -166 -13 -536 0 -702 68 -873 372 -1677 896 -2374 275 -366 652 -731 1030 -998 246 -175 646 -391 914 -495 426 -166 869 -268 1325 -307 155 -13 565 -13 720 0 455 38 910 144 1325 307 276 108 669 321 914 495 382 270 748 624 1029 995 290 384 525 828 677 1282 110 330 189 720 220 1086 13 155 13 546 0 711 -62 786 -319 1529 -752 2173 -305 455 -718 876 -1174 1199 -244 173 -638 387 -914 495 -415 163 -870 269 -1325 307 -139 11 -596 11 -735 -1z m700 -1504 c578 -61 1106 -280 1580 -654 111 -88 360 -333 447 -441 376 -467 609 -1026 668 -1603 75 -735 -114 -1462 -536 -2059 -119 -168 -188 -249 -338 -399 -199 -198 -363 -326 -596 -466 -342 -206 -758 -349 -1175 -405 -126 -17 -614 -17 -740 0 -402 54 -840 202 -1146 388 -40 24 -82 44 -93 44 -12 0 -78 -16 -149 -36 -70 -20 -192 -53 -272 -74 -80 -21 -237 -63 -350 -93 -448 -121 -544 -146 -546 -144 -3 3 35 148 136 522 28 105 74 273 100 375 27 102 65 239 84 305 31 110 32 122 19 144 -225 359 -381 824 -429 1273 -19 184 -14 539 11 718 79 569 329 1123 709 1570 70 82 308 312 396 381 491 390 1018 600 1660 662 102 10 434 5 560 -8z"/>
</g>
</svg>